<svg xmlns="http://www.w3.org/2000/svg" xmlns:xlink="http://www.w3.org/1999/xlink" width="500" zoomAndPan="magnify" viewBox="0 0 375 374.999991" height="500" preserveAspectRatio="xMidYMid meet" version="1.0"><defs><g><g id="id1"/></g><clipPath id="id2"><path d="M 72.035156 134.429688 L 165 134.429688 L 165 244.679688 L 72.035156 244.679688 Z M 72.035156 134.429688 " clip-rule="nonzero"/></clipPath><clipPath id="id3"><path d="M 101 130.195312 L 135 130.195312 L 135 171.445312 L 101 171.445312 Z M 101 130.195312 " clip-rule="nonzero"/></clipPath></defs><rect x="-37.5" width="450" fill="rgb(100%, 100%, 100%)" y="-37.499999" height="449.999989" fill-opacity="1"/><rect x="-37.5" width="450" fill="rgb(90.589905%, 79.998779%, 81.568909%)" y="-37.499999" height="449.999989" fill-opacity="1"/><rect x="-37.5" width="450" fill="rgb(100%, 100%, 100%)" y="-37.499999" height="449.999989" fill-opacity="1"/><rect x="-37.5" width="450" fill="rgb(90.589905%, 79.998779%, 81.568909%)" y="-37.499999" height="449.999989" fill-opacity="1"/><path fill="rgb(0%, 0%, 0%)" d="M 135.640625 223.671875 C 134.953125 223.605469 134.355469 224.101562 134.289062 224.785156 L 133.566406 232.203125 C 133.5 232.882812 133.996094 233.488281 134.679688 233.554688 C 134.71875 233.558594 134.757812 233.5625 134.800781 233.5625 C 135.429688 233.5625 135.96875 233.082031 136.03125 232.441406 L 136.753906 225.023438 C 136.820312 224.34375 136.324219 223.738281 135.640625 223.671875 Z M 135.640625 223.671875 " fill-opacity="1" fill-rule="nonzero"/><g clip-path="url(#id2)"><path fill="rgb(0%, 0%, 0%)" d="M 74.851562 198.925781 C 73.070312 200.722656 72.089844 203.085938 72.089844 205.582031 C 72.089844 210.730469 76.234375 214.921875 81.359375 215.015625 L 85.882812 236.835938 C 86.824219 241.382812 90.875 244.679688 95.515625 244.679688 L 141.539062 244.679688 C 146.179688 244.679688 150.230469 241.382812 151.171875 236.835938 L 155.695312 215.015625 C 158.144531 214.972656 160.449219 213.996094 162.199219 212.246094 C 163.980469 210.464844 164.964844 208.097656 164.964844 205.582031 C 164.964844 200.386719 160.730469 196.15625 155.523438 196.15625 L 152.832031 196.15625 C 152.933594 196.058594 153.046875 195.96875 153.148438 195.871094 C 154.9375 194.078125 155.925781 191.707031 155.925781 189.191406 C 155.925781 183.988281 151.691406 179.753906 146.484375 179.753906 L 142.90625 179.753906 C 143.011719 179.65625 143.125 179.566406 143.226562 179.460938 C 145.007812 177.664062 145.988281 175.300781 145.988281 172.800781 C 145.988281 167.597656 141.753906 163.363281 136.546875 163.363281 L 125.128906 163.363281 C 127.230469 161.523438 128.570312 158.832031 128.570312 155.824219 C 128.570312 150.777344 124.816406 146.601562 119.957031 145.917969 C 119.382812 139.488281 113.976562 134.429688 107.398438 134.429688 C 106.714844 134.429688 106.160156 134.984375 106.160156 135.667969 C 106.160156 136.351562 106.714844 136.90625 107.398438 136.90625 C 112.589844 136.90625 116.878906 140.832031 117.464844 145.871094 C 112.453125 146.414062 108.542969 150.667969 108.542969 155.824219 C 108.542969 158.828125 109.878906 161.523438 111.984375 163.363281 L 100.507812 163.363281 C 98.003906 163.363281 95.636719 164.347656 93.851562 166.136719 C 92.0625 167.902344 91.082031 170.273438 91.082031 172.800781 C 91.082031 175.554688 92.273438 178.027344 94.160156 179.753906 L 90.570312 179.753906 C 88.058594 179.753906 85.691406 180.734375 83.910156 182.515625 C 82.117188 184.308594 81.132812 186.679688 81.132812 189.191406 C 81.132812 191.949219 82.328125 194.429688 84.21875 196.15625 L 81.53125 196.15625 C 79.027344 196.15625 76.65625 197.136719 74.851562 198.925781 Z M 148.746094 236.332031 C 148.042969 239.734375 145.011719 242.203125 141.539062 242.203125 L 135.078125 242.203125 L 135.308594 239.863281 C 135.375 239.179688 134.875 238.574219 134.195312 238.507812 C 133.5 238.453125 132.910156 238.941406 132.84375 239.621094 L 132.589844 242.203125 L 119.765625 242.203125 L 119.765625 239.722656 C 119.765625 239.039062 119.210938 238.484375 118.527344 238.484375 C 117.84375 238.484375 117.289062 239.039062 117.289062 239.722656 L 117.289062 242.203125 L 104.464844 242.203125 L 104.210938 239.621094 C 104.148438 238.941406 103.550781 238.453125 102.859375 238.507812 C 102.179688 238.574219 101.679688 239.179688 101.746094 239.863281 L 101.976562 242.203125 L 95.515625 242.203125 C 92.042969 242.203125 89.011719 239.734375 88.308594 236.332031 L 83.890625 215.023438 L 99.324219 215.023438 L 99.578125 217.601562 C 99.636719 218.242188 100.175781 218.722656 100.808594 218.722656 C 100.847656 218.722656 100.886719 218.71875 100.929688 218.714844 C 101.609375 218.648438 102.109375 218.046875 102.042969 217.363281 L 101.8125 215.023438 L 117.289062 215.023438 L 117.289062 217.503906 C 117.289062 218.1875 117.84375 218.742188 118.527344 218.742188 C 119.210938 218.742188 119.765625 218.1875 119.765625 217.503906 L 119.765625 215.023438 L 135.242188 215.023438 L 135.011719 217.363281 C 134.945312 218.046875 135.445312 218.648438 136.125 218.714844 C 136.167969 218.71875 136.207031 218.722656 136.246094 218.722656 C 136.875 218.722656 137.414062 218.242188 137.476562 217.601562 L 137.730469 215.023438 L 153.164062 215.023438 Z M 111.019531 155.824219 C 111.019531 151.667969 114.398438 148.285156 118.554688 148.285156 C 122.710938 148.285156 126.09375 151.667969 126.09375 155.824219 C 126.09375 159.980469 122.710938 163.363281 118.554688 163.363281 C 114.398438 163.363281 111.019531 159.980469 111.019531 155.824219 Z M 96.652344 196.15625 L 90.570312 196.15625 C 86.730469 196.15625 83.609375 193.03125 83.609375 189.191406 C 83.609375 187.34375 84.335938 185.59375 85.660156 184.269531 C 86.972656 182.953125 88.71875 182.230469 90.570312 182.230469 L 121.78125 182.230469 C 122.464844 182.230469 123.019531 181.675781 123.019531 180.992188 C 123.019531 180.304688 122.464844 179.75 121.78125 179.75 L 100.507812 179.75 C 96.675781 179.75 93.558594 176.632812 93.558594 172.800781 C 93.558594 170.9375 94.28125 169.195312 95.597656 167.890625 C 96.921875 166.570312 98.664062 165.839844 100.507812 165.839844 L 136.546875 165.839844 C 140.386719 165.839844 143.511719 168.960938 143.511719 172.800781 C 143.511719 174.640625 142.785156 176.386719 141.476562 177.707031 C 140.144531 179.027344 138.394531 179.753906 136.546875 179.753906 L 132.265625 179.753906 C 131.582031 179.753906 131.027344 180.304688 131.027344 180.992188 C 131.027344 181.675781 131.582031 182.230469 132.265625 182.230469 L 146.484375 182.230469 C 150.324219 182.230469 153.445312 185.351562 153.445312 189.191406 C 153.445312 191.046875 152.71875 192.792969 151.394531 194.117188 C 150.082031 195.433594 148.335938 196.15625 146.484375 196.15625 L 107.679688 196.15625 C 106.996094 196.15625 106.441406 196.710938 106.441406 197.394531 C 106.441406 198.078125 106.996094 198.632812 107.679688 198.632812 L 155.523438 198.632812 C 159.363281 198.632812 162.488281 201.75 162.488281 205.585938 C 162.488281 207.4375 161.761719 209.179688 160.449219 210.496094 C 159.125 211.816406 157.375 212.546875 155.523438 212.546875 L 81.53125 212.546875 C 77.691406 212.546875 74.566406 209.421875 74.566406 205.582031 C 74.566406 203.742188 75.292969 201.996094 76.601562 200.675781 C 77.933594 199.359375 79.683594 198.632812 81.53125 198.632812 L 96.652344 198.632812 C 97.335938 198.632812 97.890625 198.078125 97.890625 197.394531 C 97.890625 196.710938 97.335938 196.15625 96.652344 196.15625 Z M 96.652344 196.15625 " fill-opacity="1" fill-rule="nonzero"/></g><path fill="rgb(0%, 0%, 0%)" d="M 118.527344 223.671875 C 117.84375 223.671875 117.289062 224.226562 117.289062 224.910156 L 117.289062 232.316406 C 117.289062 233 117.84375 233.554688 118.527344 233.554688 C 119.210938 233.554688 119.765625 233 119.765625 232.316406 L 119.765625 224.910156 C 119.765625 224.222656 119.210938 223.671875 118.527344 223.671875 Z M 118.527344 223.671875 " fill-opacity="1" fill-rule="nonzero"/><path fill="rgb(0%, 0%, 0%)" d="M 101.414062 223.671875 C 100.730469 223.738281 100.234375 224.34375 100.300781 225.023438 L 101.023438 232.441406 C 101.085938 233.082031 101.625 233.5625 102.253906 233.5625 C 102.296875 233.5625 102.335938 233.558594 102.375 233.554688 C 103.058594 233.488281 103.554688 232.882812 103.488281 232.203125 L 102.765625 224.785156 C 102.699219 224.101562 102.101562 223.609375 101.414062 223.671875 Z M 101.414062 223.671875 " fill-opacity="1" fill-rule="nonzero"/><g clip-path="url(#id3)"><path fill="rgb(0%, 0%, 0%)" d="M 111.273438 130.5 C 111.066406 130.503906 110.84375 130.582031 110.589844 130.78125 C 109.96875 130.542969 109.371094 130.457031 108.832031 130.945312 C 108.003906 130.835938 107.734375 131.058594 107.527344 131.320312 C 107.347656 131.316406 106.167969 131.132812 105.625 131.9375 C 104.265625 131.777344 103.835938 132.738281 104.320312 133.636719 C 104.042969 134.066406 103.753906 134.492188 104.40625 135.3125 C 104.175781 135.769531 104.316406 136.265625 104.859375 136.863281 C 104.714844 137.503906 104.996094 137.957031 105.5 138.3125 C 105.40625 139.191406 106.308594 139.703125 106.574219 139.882812 C 106.679688 140.394531 106.894531 140.878906 107.921875 141.144531 C 108.09375 141.910156 108.710938 142.039062 109.308594 142.199219 C 107.332031 143.351562 105.636719 144.863281 105.644531 148.574219 L 105.355469 149.089844 C 103.089844 150.46875 101.050781 154.902344 104.238281 158.503906 C 104.449219 159.632812 104.796875 160.441406 105.109375 161.339844 C 105.574219 164.949219 108.609375 166.640625 109.410156 166.84375 C 110.585938 167.734375 111.835938 168.585938 113.527344 169.179688 C 115.121094 170.824219 116.851562 171.449219 118.585938 171.449219 C 118.613281 171.449219 122.128906 170.824219 123.722656 169.179688 C 125.417969 168.585938 126.667969 167.734375 127.839844 166.84375 C 128.640625 166.640625 131.679688 164.949219 132.144531 161.339844 C 132.453125 160.441406 132.804688 159.632812 133.011719 158.503906 C 136.203125 154.902344 134.164062 150.46875 131.894531 149.089844 L 131.605469 148.574219 C 131.617188 144.863281 129.921875 143.351562 127.945312 142.199219 C 128.542969 142.039062 129.160156 141.910156 129.328125 141.144531 C 130.359375 140.878906 130.574219 140.394531 130.675781 139.882812 C 130.945312 139.699219 131.84375 139.191406 131.75 138.3125 C 132.253906 137.957031 132.535156 137.503906 132.390625 136.863281 C 132.933594 136.261719 133.078125 135.769531 132.847656 135.3125 C 133.496094 134.492188 133.207031 134.066406 132.929688 133.636719 C 133.417969 132.738281 132.988281 131.777344 131.628906 131.9375 C 131.085938 131.132812 129.90625 131.316406 129.722656 131.320312 C 129.519531 131.058594 129.25 130.835938 128.417969 130.945312 C 127.882812 130.457031 127.28125 130.542969 126.660156 130.78125 C 125.925781 130.199219 125.4375 130.664062 124.882812 130.839844 C 123.992188 130.550781 123.789062 130.949219 123.351562 131.113281 C 122.378906 130.90625 122.082031 131.351562 121.617188 131.824219 L 121.078125 131.8125 C 119.609375 132.675781 118.882812 134.4375 118.625 135.339844 C 118.367188 134.4375 117.640625 132.675781 116.175781 131.8125 L 115.632812 131.824219 C 115.167969 131.351562 114.871094 130.90625 113.902344 131.113281 C 113.464844 130.949219 113.261719 130.550781 112.367188 130.839844 C 112.003906 130.726562 111.667969 130.484375 111.273438 130.496094 L 101.214844 148.160156 " fill-opacity="1" fill-rule="nonzero"/></g><path fill="rgb(45.878601%, 66.268921%, 15.689087%)" d="M 108.355469 134.296875 C 112.242188 136.300781 114.503906 137.921875 115.742188 139.304688 C 115.109375 141.84375 111.800781 141.960938 110.589844 141.890625 C 110.839844 141.773438 111.042969 141.636719 111.117188 141.425781 C 110.8125 141.210938 109.738281 141.402344 108.988281 140.980469 C 109.277344 140.921875 109.410156 140.863281 109.546875 140.648438 C 108.835938 140.421875 108.070312 140.226562 107.621094 139.851562 C 107.863281 139.855469 108.089844 139.90625 108.40625 139.6875 C 107.773438 139.34375 107.09375 139.074219 106.566406 138.550781 C 106.894531 138.539062 107.25 138.546875 107.351562 138.425781 C 106.769531 138.0625 106.28125 137.664062 105.875 137.226562 C 106.332031 137.28125 106.527344 137.234375 106.640625 137.152344 C 106.199219 136.703125 105.640625 136.320312 105.375 135.765625 C 105.71875 135.882812 106.03125 135.929688 106.257812 135.757812 C 106.105469 135.417969 105.464844 135.21875 105.097656 134.433594 C 105.457031 134.46875 105.839844 134.511719 105.914062 134.433594 C 105.746094 133.75 105.460938 133.371094 105.179688 132.972656 C 105.949219 132.960938 107.117188 132.976562 107.0625 132.910156 L 106.585938 132.425781 C 107.339844 132.222656 108.109375 132.457031 108.667969 132.632812 C 108.917969 132.433594 108.664062 132.183594 108.355469 131.929688 C 108.996094 132.015625 109.574219 132.160156 110.09375 132.363281 C 110.371094 132.113281 109.914062 131.859375 109.691406 131.609375 C 110.675781 131.796875 111.097656 132.058594 111.511719 132.320312 C 111.8125 132.03125 111.527344 131.789062 111.324219 131.535156 C 112.070312 131.8125 112.453125 132.167969 112.855469 132.519531 C 112.992188 132.332031 113.203125 132.199219 112.949219 131.753906 C 113.476562 132.058594 113.875 132.417969 114.167969 132.820312 C 114.496094 132.609375 114.363281 132.324219 114.367188 132.0625 C 114.914062 132.511719 115.265625 132.984375 115.691406 133.449219 C 115.777344 133.386719 115.851562 133.175781 115.917969 132.839844 C 117.226562 134.109375 119.078125 137.3125 116.394531 138.582031 C 114.109375 136.695312 111.378906 135.324219 108.355469 134.296875 " fill-opacity="1" fill-rule="nonzero"/><path fill="rgb(45.878601%, 66.268921%, 15.689087%)" d="M 128.984375 134.296875 C 125.097656 136.300781 122.835938 137.921875 121.597656 139.304688 C 122.234375 141.84375 125.539062 141.960938 126.75 141.890625 C 126.503906 141.773438 126.292969 141.636719 126.222656 141.425781 C 126.523438 141.210938 127.601562 141.402344 128.351562 140.980469 C 128.066406 140.921875 127.929688 140.863281 127.792969 140.648438 C 128.503906 140.421875 129.269531 140.226562 129.71875 139.851562 C 129.476562 139.855469 129.25 139.90625 128.933594 139.6875 C 129.566406 139.34375 130.246094 139.074219 130.773438 138.550781 C 130.445312 138.539062 130.089844 138.546875 129.988281 138.425781 C 130.570312 138.0625 131.0625 137.664062 131.464844 137.226562 C 131.007812 137.28125 130.8125 137.234375 130.703125 137.152344 C 131.140625 136.703125 131.699219 136.320312 131.960938 135.765625 C 131.621094 135.882812 131.308594 135.929688 131.082031 135.757812 C 131.234375 135.417969 131.875 135.21875 132.242188 134.433594 C 131.882812 134.46875 131.5 134.511719 131.425781 134.433594 C 131.59375 133.75 131.878906 133.371094 132.160156 132.972656 C 131.390625 132.960938 130.222656 132.976562 130.277344 132.910156 L 130.753906 132.425781 C 130 132.222656 129.230469 132.457031 128.671875 132.632812 C 128.421875 132.433594 128.679688 132.183594 128.984375 131.929688 C 128.34375 132.015625 127.769531 132.160156 127.246094 132.363281 C 126.96875 132.113281 127.425781 131.859375 127.648438 131.609375 C 126.664062 131.796875 126.246094 132.058594 125.828125 132.320312 C 125.527344 132.03125 125.8125 131.785156 126.015625 131.535156 C 125.269531 131.8125 124.886719 132.167969 124.484375 132.519531 C 124.347656 132.332031 124.136719 132.199219 124.390625 131.753906 C 123.863281 132.058594 123.464844 132.417969 123.171875 132.816406 C 122.84375 132.609375 122.976562 132.324219 122.972656 132.0625 C 122.425781 132.507812 122.074219 132.984375 121.648438 133.449219 C 121.5625 133.386719 121.488281 133.175781 121.421875 132.839844 C 120.113281 134.109375 118.261719 137.3125 120.945312 138.578125 C 123.230469 136.695312 125.957031 135.324219 128.984375 134.296875 " fill-opacity="1" fill-rule="nonzero"/><path fill="rgb(73.728943%, 6.669617%, 25.878906%)" d="M 123.378906 160.175781 C 123.390625 162.550781 121.316406 164.480469 118.746094 164.492188 C 116.171875 164.507812 114.078125 162.59375 114.0625 160.222656 C 114.0625 160.207031 114.0625 160.191406 114.0625 160.175781 C 114.050781 157.804688 116.125 155.871094 118.695312 155.859375 C 121.269531 155.847656 123.363281 157.761719 123.378906 160.132812 L 123.378906 160.175781 " fill-opacity="1" fill-rule="nonzero"/><path fill="rgb(73.728943%, 6.669617%, 25.878906%)" d="M 116.027344 147.910156 C 117.957031 149.175781 118.304688 152.039062 116.804688 154.308594 C 115.304688 156.582031 112.523438 157.398438 110.59375 156.132812 C 108.664062 154.871094 108.316406 152.003906 109.816406 149.730469 C 111.316406 147.460938 114.097656 146.644531 116.027344 147.910156 " fill-opacity="1" fill-rule="nonzero"/><path fill="rgb(73.728943%, 6.669617%, 25.878906%)" d="M 121.234375 147.679688 C 119.304688 148.945312 118.957031 151.8125 120.457031 154.082031 C 121.957031 156.351562 124.738281 157.167969 126.667969 155.902344 C 128.597656 154.640625 128.945312 151.773438 127.445312 149.503906 C 125.945312 147.234375 123.164062 146.417969 121.234375 147.679688 " fill-opacity="1" fill-rule="nonzero"/><path fill="rgb(73.728943%, 6.669617%, 25.878906%)" d="M 106.382812 149.976562 C 108.464844 149.417969 107.085938 158.597656 105.390625 157.84375 C 103.527344 156.34375 102.925781 151.949219 106.382812 149.976562 " fill-opacity="1" fill-rule="nonzero"/><path fill="rgb(73.728943%, 6.669617%, 25.878906%)" d="M 130.457031 149.863281 C 128.375 149.304688 129.753906 158.480469 131.449219 157.730469 C 133.3125 156.226562 133.914062 151.835938 130.457031 149.863281 " fill-opacity="1" fill-rule="nonzero"/><path fill="rgb(73.728943%, 6.669617%, 25.878906%)" d="M 123.378906 143.027344 C 126.976562 142.421875 129.964844 144.558594 129.84375 148.457031 C 129.726562 149.949219 122.054688 143.25 123.378906 143.027344 " fill-opacity="1" fill-rule="nonzero"/><path fill="rgb(73.728943%, 6.669617%, 25.878906%)" d="M 113.445312 142.914062 C 109.851562 142.308594 106.859375 144.445312 106.980469 148.339844 C 107.097656 149.835938 114.769531 143.136719 113.445312 142.914062 " fill-opacity="1" fill-rule="nonzero"/><path fill="rgb(73.728943%, 6.669617%, 25.878906%)" d="M 118.609375 142.003906 C 116.464844 141.949219 114.40625 143.597656 114.402344 144.554688 C 114.394531 145.714844 116.097656 146.90625 118.625 146.933594 C 121.207031 146.953125 122.855469 145.984375 122.863281 144.785156 C 122.871094 143.425781 120.515625 141.984375 118.609375 142.003906 " fill-opacity="1" fill-rule="nonzero"/><path fill="rgb(73.728943%, 6.669617%, 25.878906%)" d="M 118.742188 165.828125 C 120.613281 165.746094 123.125 166.429688 123.128906 167.339844 C 123.15625 168.21875 120.851562 170.210938 118.617188 170.171875 C 116.304688 170.273438 114.035156 168.277344 114.066406 167.585938 C 114.03125 166.574219 116.882812 165.78125 118.742188 165.828125 " fill-opacity="1" fill-rule="nonzero"/><path fill="rgb(73.728943%, 6.669617%, 25.878906%)" d="M 111.832031 160.449219 C 113.164062 162.054688 113.769531 164.871094 112.660156 165.703125 C 111.609375 166.335938 109.054688 166.078125 107.238281 163.46875 C 106.015625 161.28125 106.171875 159.054688 107.03125 158.402344 C 108.316406 157.617188 110.304688 158.675781 111.832031 160.449219 " fill-opacity="1" fill-rule="nonzero"/><path fill="rgb(73.728943%, 6.669617%, 25.878906%)" d="M 125.386719 159.941406 C 123.945312 161.628906 123.140625 164.707031 124.191406 165.699219 C 125.199219 166.46875 127.894531 166.359375 129.890625 163.59375 C 131.335938 161.738281 130.851562 158.632812 130.023438 157.8125 C 128.796875 156.859375 127.035156 158.078125 125.386719 159.9375 L 125.386719 159.941406 " fill-opacity="1" fill-rule="nonzero"/><g fill="rgb(14.118958%, 15.289307%, 10.978699%)" fill-opacity="1"><g transform="translate(165.161638, 173.772322)"><g><path d="M 19.984375 0 L 11.09375 0 C 8.050781 0 5.789062 -0.601562 4.3125 -1.8125 C 2.84375 -3.03125 2.109375 -4.90625 2.109375 -7.4375 L 2.109375 -18.78125 C 2.109375 -21.3125 2.84375 -23.1875 4.3125 -24.40625 C 5.789062 -25.632812 8.050781 -26.25 11.09375 -26.25 L 19.984375 -26.25 C 20.441406 -26.25 20.773438 -26.144531 20.984375 -25.9375 C 21.191406 -25.738281 21.296875 -25.40625 21.296875 -24.9375 L 21.296875 -20.53125 C 21.296875 -20.070312 21.191406 -19.738281 20.984375 -19.53125 C 20.773438 -19.320312 20.441406 -19.21875 19.984375 -19.21875 L 12.65625 -19.21875 C 11.90625 -19.21875 11.347656 -19.066406 10.984375 -18.765625 C 10.617188 -18.460938 10.4375 -18.003906 10.4375 -17.390625 L 10.4375 -8.71875 C 10.4375 -8.101562 10.617188 -7.65625 10.984375 -7.375 C 11.347656 -7.101562 11.90625 -6.96875 12.65625 -6.96875 L 19.984375 -6.96875 C 20.441406 -6.96875 20.773438 -6.863281 20.984375 -6.65625 C 21.191406 -6.445312 21.296875 -6.113281 21.296875 -5.65625 L 21.296875 -1.3125 C 21.296875 -0.851562 21.191406 -0.519531 20.984375 -0.3125 C 20.773438 -0.101562 20.441406 0 19.984375 0 Z M 19.984375 0 "/></g></g></g><g fill="rgb(14.118958%, 15.289307%, 10.978699%)" fill-opacity="1"><g transform="translate(188.064011, 173.772322)"><g><path d="M 24.765625 -6.890625 C 24.765625 -5.773438 24.597656 -4.757812 24.265625 -3.84375 C 23.941406 -2.9375 23.359375 -2.160156 22.515625 -1.515625 C 21.679688 -0.867188 20.523438 -0.363281 19.046875 0 C 17.578125 0.363281 15.710938 0.546875 13.453125 0.546875 C 11.191406 0.546875 9.316406 0.363281 7.828125 0 C 6.347656 -0.363281 5.1875 -0.867188 4.34375 -1.515625 C 3.507812 -2.160156 2.925781 -2.9375 2.59375 -3.84375 C 2.269531 -4.757812 2.109375 -5.773438 2.109375 -6.890625 L 2.109375 -19.328125 C 2.109375 -20.441406 2.269531 -21.453125 2.59375 -22.359375 C 2.925781 -23.273438 3.507812 -24.0625 4.34375 -24.71875 C 5.1875 -25.375 6.347656 -25.882812 7.828125 -26.25 C 9.316406 -26.613281 11.191406 -26.796875 13.453125 -26.796875 C 15.710938 -26.796875 17.578125 -26.613281 19.046875 -26.25 C 20.523438 -25.882812 21.679688 -25.375 22.515625 -24.71875 C 23.359375 -24.0625 23.941406 -23.273438 24.265625 -22.359375 C 24.597656 -21.453125 24.765625 -20.441406 24.765625 -19.328125 Z M 10.390625 -8.203125 C 10.390625 -7.710938 10.570312 -7.300781 10.9375 -6.96875 C 11.300781 -6.644531 12.140625 -6.484375 13.453125 -6.484375 C 14.765625 -6.484375 15.601562 -6.644531 15.96875 -6.96875 C 16.332031 -7.300781 16.515625 -7.710938 16.515625 -8.203125 L 16.515625 -18.015625 C 16.515625 -18.472656 16.332031 -18.863281 15.96875 -19.1875 C 15.601562 -19.519531 14.765625 -19.6875 13.453125 -19.6875 C 12.140625 -19.6875 11.300781 -19.519531 10.9375 -19.1875 C 10.570312 -18.863281 10.390625 -18.472656 10.390625 -18.015625 Z M 10.390625 -8.203125 "/></g></g></g><g fill="rgb(14.118958%, 15.289307%, 10.978699%)" fill-opacity="1"><g transform="translate(214.941477, 173.772322)"><g><path d="M 16.125 0 L 3.828125 0 C 3.367188 0 3.035156 -0.101562 2.828125 -0.3125 C 2.617188 -0.519531 2.515625 -0.851562 2.515625 -1.3125 L 2.515625 -24.9375 C 2.515625 -25.40625 2.617188 -25.738281 2.828125 -25.9375 C 3.035156 -26.144531 3.367188 -26.25 3.828125 -26.25 L 16.125 -26.25 C 19.15625 -26.25 21.40625 -25.640625 22.875 -24.421875 C 24.351562 -23.210938 25.09375 -21.34375 25.09375 -18.8125 L 25.09375 -7.4375 C 25.09375 -4.90625 24.351562 -3.03125 22.875 -1.8125 C 21.40625 -0.601562 19.15625 0 16.125 0 Z M 10.796875 -19.296875 L 10.796875 -6.890625 L 15.140625 -6.890625 C 15.722656 -6.890625 16.148438 -7.035156 16.421875 -7.328125 C 16.703125 -7.617188 16.84375 -8.066406 16.84375 -8.671875 L 16.84375 -17.546875 C 16.84375 -18.148438 16.703125 -18.59375 16.421875 -18.875 C 16.148438 -19.15625 15.722656 -19.296875 15.140625 -19.296875 Z M 10.796875 -19.296875 "/></g></g></g><g fill="rgb(14.118958%, 15.289307%, 10.978699%)" fill-opacity="1"><g transform="translate(242.14716, 173.772322)"><g><path d="M 20.75 0 L 3.828125 0 C 3.367188 0 3.035156 -0.101562 2.828125 -0.3125 C 2.617188 -0.519531 2.515625 -0.851562 2.515625 -1.3125 L 2.515625 -24.9375 C 2.515625 -25.40625 2.617188 -25.738281 2.828125 -25.9375 C 3.035156 -26.144531 3.367188 -26.25 3.828125 -26.25 L 20.75 -26.25 C 21.207031 -26.25 21.539062 -26.144531 21.75 -25.9375 C 21.957031 -25.738281 22.0625 -25.40625 22.0625 -24.9375 L 22.0625 -20.671875 C 22.0625 -20.210938 21.957031 -19.878906 21.75 -19.671875 C 21.539062 -19.460938 21.207031 -19.359375 20.75 -19.359375 L 10.6875 -19.359375 L 10.6875 -16.5625 L 17.796875 -16.5625 C 18.253906 -16.5625 18.585938 -16.457031 18.796875 -16.25 C 19.003906 -16.039062 19.109375 -15.707031 19.109375 -15.25 L 19.109375 -11.34375 C 19.109375 -10.882812 19.003906 -10.550781 18.796875 -10.34375 C 18.585938 -10.132812 18.253906 -10.03125 17.796875 -10.03125 L 10.6875 -10.03125 L 10.6875 -6.890625 L 20.75 -6.890625 C 21.207031 -6.890625 21.539062 -6.785156 21.75 -6.578125 C 21.957031 -6.367188 22.0625 -6.035156 22.0625 -5.578125 L 22.0625 -1.3125 C 22.0625 -0.851562 21.957031 -0.519531 21.75 -0.3125 C 21.539062 -0.101562 21.207031 0 20.75 0 Z M 20.75 0 "/></g></g></g><g fill="rgb(14.118958%, 15.289307%, 10.978699%)" fill-opacity="1"><g transform="translate(165.161638, 204.52232)"><g><path d="M 9.296875 0 L 3.828125 0 C 3.367188 0 3.035156 -0.101562 2.828125 -0.3125 C 2.617188 -0.519531 2.515625 -0.851562 2.515625 -1.3125 L 2.515625 -24.9375 C 2.515625 -25.40625 2.617188 -25.738281 2.828125 -25.9375 C 3.035156 -26.144531 3.367188 -26.25 3.828125 -26.25 L 7.625 -26.25 C 8.082031 -26.25 8.472656 -26.175781 8.796875 -26.03125 C 9.128906 -25.882812 9.457031 -25.628906 9.78125 -25.265625 L 16.84375 -17.171875 L 16.84375 -24.9375 C 16.84375 -25.40625 16.945312 -25.738281 17.15625 -25.9375 C 17.363281 -26.144531 17.695312 -26.25 18.15625 -26.25 L 23.625 -26.25 C 24.09375 -26.25 24.425781 -26.144531 24.625 -25.9375 C 24.832031 -25.738281 24.9375 -25.40625 24.9375 -24.9375 L 24.9375 -1.3125 C 24.9375 -0.851562 24.832031 -0.519531 24.625 -0.3125 C 24.425781 -0.101562 24.09375 0 23.625 0 L 18.15625 0 C 17.695312 0 17.363281 -0.101562 17.15625 -0.3125 C 16.945312 -0.519531 16.84375 -0.851562 16.84375 -1.3125 L 16.84375 -5.796875 L 10.609375 -13.34375 L 10.609375 -1.3125 C 10.609375 -0.851562 10.503906 -0.519531 10.296875 -0.3125 C 10.097656 -0.101562 9.765625 0 9.296875 0 Z M 9.296875 0 "/></g></g></g><g fill="rgb(14.118958%, 15.289307%, 10.978699%)" fill-opacity="1"><g transform="translate(192.622605, 204.52232)"><g><path d="M 12.03125 -18.59375 L 10.328125 -13.0625 L 16.046875 -13.0625 L 14.328125 -18.59375 C 14.234375 -18.8125 14.128906 -18.96875 14.015625 -19.0625 C 13.910156 -19.164062 13.785156 -19.21875 13.640625 -19.21875 L 12.734375 -19.21875 C 12.585938 -19.21875 12.457031 -19.164062 12.34375 -19.0625 C 12.238281 -18.96875 12.132812 -18.8125 12.03125 -18.59375 Z M 9.953125 -1.3125 C 9.953125 -0.851562 9.847656 -0.519531 9.640625 -0.3125 C 9.441406 -0.101562 9.109375 0 8.640625 0 L 3.28125 0 C 2.820312 0 2.488281 -0.101562 2.28125 -0.3125 C 2.070312 -0.519531 1.96875 -0.851562 1.96875 -1.3125 L 1.96875 -10.9375 C 1.96875 -11.664062 2.082031 -12.503906 2.3125 -13.453125 C 2.539062 -14.398438 2.898438 -15.507812 3.390625 -16.78125 L 6.5625 -25.046875 C 6.707031 -25.460938 6.929688 -25.765625 7.234375 -25.953125 C 7.535156 -26.148438 7.929688 -26.25 8.421875 -26.25 L 18.234375 -26.25 C 18.691406 -26.25 19.070312 -26.148438 19.375 -25.953125 C 19.6875 -25.765625 19.914062 -25.460938 20.0625 -25.046875 L 23.234375 -16.78125 C 23.710938 -15.507812 24.066406 -14.398438 24.296875 -13.453125 C 24.535156 -12.503906 24.65625 -11.664062 24.65625 -10.9375 L 24.65625 -1.3125 C 24.65625 -0.851562 24.550781 -0.519531 24.34375 -0.3125 C 24.132812 -0.101562 23.800781 0 23.34375 0 L 17.828125 0 C 17.347656 0 16.988281 -0.101562 16.75 -0.3125 C 16.519531 -0.519531 16.40625 -0.851562 16.40625 -1.3125 L 16.40625 -6.421875 L 9.953125 -6.421875 Z M 9.953125 -1.3125 "/></g></g></g><g fill="rgb(14.118958%, 15.289307%, 10.978699%)" fill-opacity="1"><g transform="translate(219.244787, 204.52232)"><g><path d="M 9.265625 0 L 3.828125 0 C 3.367188 0 3.035156 -0.101562 2.828125 -0.3125 C 2.617188 -0.519531 2.515625 -0.851562 2.515625 -1.3125 L 2.515625 -24.9375 C 2.515625 -25.40625 2.617188 -25.738281 2.828125 -25.9375 C 3.035156 -26.144531 3.367188 -26.25 3.828125 -26.25 L 9.703125 -26.25 C 10.085938 -26.25 10.40625 -26.164062 10.65625 -26 C 10.914062 -25.832031 11.15625 -25.550781 11.375 -25.15625 L 14.65625 -19.21875 C 14.78125 -19 14.882812 -18.835938 14.96875 -18.734375 C 15.050781 -18.640625 15.164062 -18.59375 15.3125 -18.59375 L 15.640625 -18.59375 C 15.785156 -18.59375 15.898438 -18.640625 15.984375 -18.734375 C 16.078125 -18.835938 16.179688 -19 16.296875 -19.21875 L 19.546875 -25.15625 C 19.765625 -25.550781 20 -25.832031 20.25 -26 C 20.507812 -26.164062 20.832031 -26.25 21.21875 -26.25 L 27.125 -26.25 C 27.59375 -26.25 27.929688 -26.144531 28.140625 -25.9375 C 28.347656 -25.738281 28.453125 -25.40625 28.453125 -24.9375 L 28.453125 -1.3125 C 28.453125 -0.851562 28.347656 -0.519531 28.140625 -0.3125 C 27.929688 -0.101562 27.59375 0 27.125 0 L 21.515625 0 C 21.054688 0 20.722656 -0.101562 20.515625 -0.3125 C 20.304688 -0.519531 20.203125 -0.851562 20.203125 -1.3125 L 20.203125 -14.15625 L 18.046875 -10.171875 C 17.828125 -9.765625 17.566406 -9.46875 17.265625 -9.28125 C 16.960938 -9.09375 16.582031 -9 16.125 -9 L 14.65625 -9 C 14.195312 -9 13.816406 -9.09375 13.515625 -9.28125 C 13.210938 -9.46875 12.953125 -9.765625 12.734375 -10.171875 L 10.578125 -14.15625 L 10.578125 -1.3125 C 10.578125 -0.851562 10.472656 -0.519531 10.265625 -0.3125 C 10.054688 -0.101562 9.722656 0 9.265625 0 Z M 9.265625 0 "/></g></g></g><g fill="rgb(14.118958%, 15.289307%, 10.978699%)" fill-opacity="1"><g transform="translate(250.206753, 204.52232)"><g><path d="M 20.75 0 L 3.828125 0 C 3.367188 0 3.035156 -0.101562 2.828125 -0.3125 C 2.617188 -0.519531 2.515625 -0.851562 2.515625 -1.3125 L 2.515625 -24.9375 C 2.515625 -25.40625 2.617188 -25.738281 2.828125 -25.9375 C 3.035156 -26.144531 3.367188 -26.25 3.828125 -26.25 L 20.75 -26.25 C 21.207031 -26.25 21.539062 -26.144531 21.75 -25.9375 C 21.957031 -25.738281 22.0625 -25.40625 22.0625 -24.9375 L 22.0625 -20.671875 C 22.0625 -20.210938 21.957031 -19.878906 21.75 -19.671875 C 21.539062 -19.460938 21.207031 -19.359375 20.75 -19.359375 L 10.6875 -19.359375 L 10.6875 -16.5625 L 17.796875 -16.5625 C 18.253906 -16.5625 18.585938 -16.457031 18.796875 -16.25 C 19.003906 -16.039062 19.109375 -15.707031 19.109375 -15.25 L 19.109375 -11.34375 C 19.109375 -10.882812 19.003906 -10.550781 18.796875 -10.34375 C 18.585938 -10.132812 18.253906 -10.03125 17.796875 -10.03125 L 10.6875 -10.03125 L 10.6875 -6.890625 L 20.75 -6.890625 C 21.207031 -6.890625 21.539062 -6.785156 21.75 -6.578125 C 21.957031 -6.367188 22.0625 -6.035156 22.0625 -5.578125 L 22.0625 -1.3125 C 22.0625 -0.851562 21.957031 -0.519531 21.75 -0.3125 C 21.539062 -0.101562 21.207031 0 20.75 0 Z M 20.75 0 "/></g></g></g><g fill="rgb(14.118958%, 15.289307%, 10.978699%)" fill-opacity="1"><g transform="translate(274.057314, 204.52232)"><g><path d="M 10.6875 0 L 3.3125 0 C 2.851562 0 2.519531 -0.101562 2.3125 -0.3125 C 2.101562 -0.519531 2 -0.851562 2 -1.3125 L 2 -8.71875 C 2 -9.175781 2.101562 -9.507812 2.3125 -9.71875 C 2.519531 -9.925781 2.851562 -10.03125 3.3125 -10.03125 L 10.6875 -10.03125 C 11.144531 -10.03125 11.476562 -9.925781 11.6875 -9.71875 C 11.894531 -9.507812 12 -9.175781 12 -8.71875 L 12 -1.3125 C 12 -0.851562 11.894531 -0.519531 11.6875 -0.3125 C 11.476562 -0.101562 11.144531 0 10.6875 0 Z M 10.6875 -13 L 3.3125 -13 C 2.851562 -13 2.519531 -13.101562 2.3125 -13.3125 C 2.101562 -13.519531 2 -13.851562 2 -14.3125 L 2 -21.71875 C 2 -22.175781 2.101562 -22.507812 2.3125 -22.71875 C 2.519531 -22.925781 2.851562 -23.03125 3.3125 -23.03125 L 10.6875 -23.03125 C 11.144531 -23.03125 11.476562 -22.925781 11.6875 -22.71875 C 11.894531 -22.507812 12 -22.175781 12 -21.71875 L 12 -14.3125 C 12 -13.851562 11.894531 -13.519531 11.6875 -13.3125 C 11.476562 -13.101562 11.144531 -13 10.6875 -13 Z M 10.6875 -13 "/></g></g></g><g fill="rgb(14.118958%, 15.289307%, 10.978699%)" fill-opacity="1"><g transform="translate(165.161638, 228.390484)"><g><path d="M 24.023438 -18.082031 C 20.683594 -22.019531 15.335938 -21.609375 10.917969 -19.976562 C 8.464844 -19.085938 6.050781 -17.859375 4.046875 -16.117188 C 2.449219 -14.742188 0.113281 -12.476562 1.484375 -10.285156 C 2.152344 -9.246094 3.714844 -9.394531 2.859375 -10.769531 C 2.859375 -10.804688 3.269531 -11.511719 3.34375 -11.621094 C 3.566406 -11.992188 3.824219 -12.328125 4.085938 -12.664062 C 4.605469 -13.332031 5.234375 -13.960938 5.902344 -14.519531 C 7.242188 -15.632812 8.761719 -16.523438 10.359375 -17.265625 C 13.589844 -18.75 17.75 -20.199219 21.203125 -18.601562 C 24.65625 -16.96875 24.210938 -12.8125 22.726562 -9.914062 C 21.128906 -6.871094 18.15625 -4.417969 15.039062 -3.082031 C 14.222656 -2.710938 13.367188 -2.375 12.511719 -2.226562 C 12.105469 -2.117188 11.695312 -2.078125 11.25 -2.117188 C 10.730469 -2.152344 10.546875 -2.226562 10.65625 -2.785156 C 10.953125 -4.679688 12.738281 -6.386719 14.332031 -7.277344 C 15.261719 -7.796875 13.664062 -9.617188 12.921875 -9.207031 C 12.589844 -8.984375 12.214844 -8.761719 11.882812 -8.539062 C 12.664062 -10.621094 13.515625 -12.664062 14.445312 -14.667969 C 14.816406 -15.445312 12.960938 -17.007812 12.511719 -16.078125 C 9.320312 -9.132812 7.054688 -1.820312 5.867188 5.71875 C 5.71875 6.574219 7.613281 8.019531 7.761719 7.09375 C 8.242188 4.269531 8.835938 1.449219 9.582031 -1.335938 C 10.136719 -0.742188 10.917969 -0.335938 11.769531 -0.1875 C 13.777344 0.148438 15.96875 -0.816406 17.675781 -1.746094 C 19.753906 -2.859375 21.648438 -4.34375 23.097656 -6.199219 C 25.808594 -9.542969 27.070312 -14.519531 24.023438 -18.082031 Z M 24.023438 -18.082031 "/></g></g></g><g fill="rgb(14.118958%, 15.289307%, 10.978699%)" fill-opacity="1"><g transform="translate(192.077259, 228.390484)"><g><path d="M 6.980469 -4.566406 C 5.234375 -3.117188 1.671875 -1.1875 0.1875 -0.929688 C 0.222656 -1.078125 0.296875 -1.261719 0.371094 -1.410156 C 0.816406 -2.597656 1.335938 -3.675781 2.003906 -4.753906 C 2.414062 -5.496094 0.59375 -7.09375 0.0742188 -6.164062 C -0.742188 -4.789062 -1.96875 -2.894531 -1.929688 -1.261719 C -1.894531 0.1875 -0.519531 1.523438 0.929688 1.226562 C 2.191406 0.964844 3.417969 0.113281 4.457031 -0.59375 C 5.753906 -1.484375 7.019531 -2.449219 8.242188 -3.492188 C 8.910156 -4.046875 7.722656 -5.199219 6.980469 -4.566406 Z M 3.640625 -8.464844 C 4.195312 -9.542969 4.269531 -9.765625 4.269531 -9.765625 C 4.714844 -10.507812 2.894531 -12.066406 2.375 -11.140625 C 2.375 -11.140625 2.152344 -10.769531 1.746094 -9.878906 C 1.375 -9.058594 3.195312 -7.574219 3.640625 -8.464844 Z M 3.640625 -8.464844 "/></g></g></g><g fill="rgb(14.118958%, 15.289307%, 10.978699%)" fill-opacity="1"><g transform="translate(199.353756, 228.390484)"><g><path d="M 9.617188 -4.640625 C 7.425781 -2.933594 2.078125 -0.296875 -0.148438 0 C -0.0742188 -0.296875 0.0390625 -0.59375 0.148438 -0.855469 C 1.484375 -1.484375 6.460938 -3.417969 4.34375 -5.605469 C 2.894531 -7.128906 0.929688 -5.753906 -0.1875 -4.566406 C -1.410156 -3.230469 -3.117188 -0.59375 -1.78125 1.1875 C -0.929688 2.375 0.335938 2.265625 1.558594 1.855469 C 4.902344 0.667969 7.984375 -1.558594 10.917969 -3.453125 C 11.621094 -3.9375 10.398438 -5.234375 9.617188 -4.640625 Z M 9.617188 -4.640625 "/></g></g></g><g fill="rgb(14.118958%, 15.289307%, 10.978699%)" fill-opacity="1"><g transform="translate(209.191875, 228.390484)"><g><path d="M 24.023438 -18.082031 C 20.683594 -22.019531 15.335938 -21.609375 10.917969 -19.976562 C 8.464844 -19.085938 6.050781 -17.859375 4.046875 -16.117188 C 2.449219 -14.742188 0.113281 -12.476562 1.484375 -10.285156 C 2.152344 -9.246094 3.714844 -9.394531 2.859375 -10.769531 C 2.859375 -10.804688 3.269531 -11.511719 3.34375 -11.621094 C 3.566406 -11.992188 3.824219 -12.328125 4.085938 -12.664062 C 4.605469 -13.332031 5.234375 -13.960938 5.902344 -14.519531 C 7.242188 -15.632812 8.761719 -16.523438 10.359375 -17.265625 C 13.589844 -18.75 17.75 -20.199219 21.203125 -18.601562 C 24.65625 -16.96875 24.210938 -12.8125 22.726562 -9.914062 C 21.128906 -6.871094 18.15625 -4.417969 15.039062 -3.082031 C 14.222656 -2.710938 13.367188 -2.375 12.511719 -2.226562 C 12.105469 -2.117188 11.695312 -2.078125 11.25 -2.117188 C 10.730469 -2.152344 10.546875 -2.226562 10.65625 -2.785156 C 10.953125 -4.679688 12.738281 -6.386719 14.332031 -7.277344 C 15.261719 -7.796875 13.664062 -9.617188 12.921875 -9.207031 C 12.589844 -8.984375 12.214844 -8.761719 11.882812 -8.539062 C 12.664062 -10.621094 13.515625 -12.664062 14.445312 -14.667969 C 14.816406 -15.445312 12.960938 -17.007812 12.511719 -16.078125 C 9.320312 -9.132812 7.054688 -1.820312 5.867188 5.71875 C 5.71875 6.574219 7.613281 8.019531 7.761719 7.09375 C 8.242188 4.269531 8.835938 1.449219 9.582031 -1.335938 C 10.136719 -0.742188 10.917969 -0.335938 11.769531 -0.1875 C 13.777344 0.148438 15.96875 -0.816406 17.675781 -1.746094 C 19.753906 -2.859375 21.648438 -4.34375 23.097656 -6.199219 C 25.808594 -9.542969 27.070312 -14.519531 24.023438 -18.082031 Z M 24.023438 -18.082031 "/></g></g></g><g fill="rgb(14.118958%, 15.289307%, 10.978699%)" fill-opacity="1"><g transform="translate(236.107496, 228.390484)"><g><path d="M 6.871094 -4.863281 C 5.570312 -7.019531 3.789062 -6.648438 2.078125 -5.347656 C 1.820312 -6.164062 0.484375 -7.054688 0.1875 -6.277344 C -0.632812 -4.085938 -1.523438 -1.929688 -2.339844 0.261719 C -2.636719 1.078125 -0.855469 2.636719 -0.410156 1.671875 C 0.222656 0.296875 1.078125 -0.964844 2.117188 -2.042969 C 2.5625 -2.5625 3.082031 -3.042969 3.640625 -3.453125 C 3.898438 -3.640625 4.976562 -4.457031 5.457031 -4.457031 C 5.753906 -4.160156 6.125 -3.863281 6.5 -3.898438 C 7.054688 -3.9375 7.128906 -4.457031 6.871094 -4.863281 Z M 6.871094 -4.863281 "/></g></g></g><g fill="rgb(14.118958%, 15.289307%, 10.978699%)" fill-opacity="1"><g transform="translate(245.128873, 228.390484)"><g><path d="M 4.34375 -4.863281 C 4.308594 -5.011719 4.269531 -5.125 4.234375 -5.273438 C 4.753906 -5.867188 3.378906 -7.425781 2.636719 -7.054688 C 0.296875 -5.867188 -3.898438 -1.78125 -1.375 1.039062 C -0.0390625 2.523438 1.707031 1.894531 2.820312 0.484375 C 4.011719 -1.039062 4.53125 -2.933594 4.34375 -4.863281 Z M 1.78125 -2.375 C 1.523438 -1.820312 1.1875 -1.300781 0.742188 -0.855469 C 0.484375 -0.558594 0.222656 -0.445312 -0.0742188 -0.1875 C -0.0390625 -0.371094 0 -0.59375 0.0390625 -0.667969 C 0.113281 -0.929688 0.222656 -1.152344 0.335938 -1.410156 C 0.59375 -1.929688 0.929688 -2.449219 1.300781 -2.894531 C 1.597656 -3.304688 1.929688 -3.640625 2.300781 -3.972656 C 2.191406 -3.417969 2.042969 -2.894531 1.78125 -2.375 Z M 1.78125 -2.375 "/></g></g></g><g fill="rgb(14.118958%, 15.289307%, 10.978699%)" fill-opacity="1"><g transform="translate(251.996998, 228.390484)"><g><path d="M -0.148438 -6.425781 C -0.519531 -5.382812 -0.964844 -4.382812 -1.410156 -3.378906 C -4.085938 -2.859375 -6.3125 -0.484375 -7.945312 1.523438 C -10.0625 4.121094 -12.253906 7.5 -11.546875 10.992188 C -11.4375 11.546875 -10.695312 12.289062 -10.101562 12.253906 C -8.429688 12.140625 -7.464844 10.695312 -6.5 9.46875 C -5.308594 8.019531 -4.234375 6.5 -3.230469 4.902344 C -1.929688 2.859375 -0.78125 0.707031 0.261719 -1.484375 C 0.335938 -1.484375 0.445312 -1.523438 0.519531 -1.523438 C 1.113281 -1.523438 1.078125 -2.042969 0.742188 -2.5625 C 1.113281 -3.378906 1.449219 -4.195312 1.78125 -5.011719 C 2.117188 -5.867188 0.222656 -7.390625 -0.148438 -6.425781 Z M -4.753906 2.859375 C -5.644531 4.269531 -6.609375 5.644531 -7.613281 6.980469 C -8.132812 7.6875 -8.835938 8.835938 -9.691406 9.582031 C -9.28125 7.167969 -7.5 4.753906 -6.050781 3.007812 C -5.234375 2.042969 -4.234375 0.890625 -3.117188 0 C -3.640625 0.964844 -4.160156 1.929688 -4.753906 2.859375 Z M 1.523438 -11.546875 C 1.523438 -11.546875 1.300781 -11.140625 0.890625 -10.25 C 0.519531 -9.433594 2.339844 -7.945312 2.785156 -8.835938 C 3.34375 -9.914062 3.417969 -10.136719 3.417969 -10.136719 C 3.824219 -10.878906 2.003906 -12.476562 1.523438 -11.546875 Z M 1.523438 -11.546875 "/></g></g></g><g fill="rgb(14.118958%, 15.289307%, 10.978699%)" fill-opacity="1"><g transform="translate(257.231617, 228.390484)"><g><path d="M 9.617188 -4.640625 C 7.425781 -2.933594 2.078125 -0.296875 -0.148438 0 C -0.0742188 -0.296875 0.0390625 -0.59375 0.148438 -0.855469 C 1.484375 -1.484375 6.460938 -3.417969 4.34375 -5.605469 C 2.894531 -7.128906 0.929688 -5.753906 -0.1875 -4.566406 C -1.410156 -3.230469 -3.117188 -0.59375 -1.78125 1.1875 C -0.929688 2.375 0.335938 2.265625 1.558594 1.855469 C 4.902344 0.667969 7.984375 -1.558594 10.917969 -3.453125 C 11.621094 -3.9375 10.398438 -5.234375 9.617188 -4.640625 Z M 9.617188 -4.640625 "/></g></g></g><g fill="rgb(14.118958%, 15.289307%, 10.978699%)" fill-opacity="1"><g transform="translate(267.069736, 228.390484)"><g><path d="M 11.324219 -4.679688 C 8.652344 -3.527344 2.449219 -1.300781 0.707031 -1.152344 C 0.558594 -1.113281 0.222656 -1.226562 0.59375 -2.152344 C 0.964844 -3.195312 2.042969 -5.234375 3.453125 -4.382812 C 3.863281 -4.160156 4.382812 -4.234375 4.417969 -4.753906 C 4.492188 -5.308594 3.824219 -5.828125 3.417969 -6.089844 C -0.1875 -8.207031 -3.640625 -1.707031 -0.296875 0.410156 C 1.523438 1.523438 3.714844 0.261719 5.421875 -0.484375 C 7.648438 -1.449219 9.839844 -2.414062 12.066406 -3.378906 C 12.996094 -3.824219 12.140625 -5.050781 11.324219 -4.679688 Z M 11.324219 -4.679688 "/></g></g></g><g fill="rgb(14.118958%, 15.289307%, 10.978699%)" fill-opacity="1"><g transform="translate(278.652735, 228.390484)"><g><path d="M 18.453125 -14.222656 C 14.964844 -16.042969 10.621094 -16.078125 6.683594 -16.042969 C 7.242188 -17.265625 7.835938 -18.492188 8.429688 -19.679688 C 8.800781 -20.460938 6.945312 -22.058594 6.5 -21.089844 C 5.679688 -19.421875 4.863281 -17.710938 4.085938 -16.003906 C -0.222656 -15.855469 -4.566406 -15.371094 -8.835938 -14.554688 C -9.730469 -14.371094 -8.316406 -12.476562 -7.425781 -12.625 C -3.898438 -13.332031 -0.371094 -13.738281 3.195312 -13.925781 C 0.1875 -7.09375 -2.191406 0.0390625 -2.078125 7.613281 C -2.042969 8.464844 -0.0742188 9.804688 -0.113281 8.613281 C -0.222656 0.632812 2.488281 -6.871094 5.753906 -14.035156 C 5.792969 -14.035156 5.828125 -14.035156 5.867188 -14.035156 C 7.984375 -14.074219 10.101562 -14.035156 12.214844 -13.886719 C 14.371094 -13.738281 16.5625 -13.554688 18.492188 -12.511719 C 18.902344 -12.289062 19.382812 -12.328125 19.457031 -12.886719 C 19.496094 -13.40625 18.863281 -14 18.453125 -14.222656 Z M 18.453125 -14.222656 "/></g></g></g><g fill="rgb(14.118958%, 15.289307%, 10.978699%)" fill-opacity="1"><g transform="translate(283.77598, 228.390484)"><g><path d="M 6.796875 -4.9375 C 6.015625 -4.640625 4.234375 -4.160156 2.375 -3.304688 C 2.191406 -3.492188 2.003906 -3.675781 1.820312 -3.898438 C 1.375 -4.457031 1.039062 -5.792969 2.226562 -5.71875 C 2.785156 -5.679688 2.746094 -6.351562 2.5625 -6.683594 C 2.339844 -7.167969 1.78125 -7.648438 1.226562 -7.6875 C -0.632812 -7.835938 -0.890625 -5.753906 -0.222656 -4.417969 C 0.148438 -3.675781 0.78125 -3.15625 1.300781 -2.488281 C -0.742188 -0.816406 -2.191406 1.261719 -0.1875 2.933594 C 1.707031 4.492188 3.492188 2.191406 3.75 0.371094 C 3.824219 -0.1875 3.789062 -0.742188 3.640625 -1.261719 C 4.789062 -2.152344 6.089844 -2.859375 7.425781 -3.378906 C 8.390625 -3.75 7.613281 -5.273438 6.796875 -4.9375 Z M 6.796875 -4.9375 "/></g></g></g></svg>